<svg xmlns="http://www.w3.org/2000/svg" xmlns:xlink="http://www.w3.org/1999/xlink" version="1.1" id="Layer_1" x="0px" y="0px" width="912px" height="261.36px" viewBox="0 0 612 161.36" style="enable-background:new 0 0 612 161.36;" xml:space="preserve">
    <style type="text/css">
        .st0{fill:#212529;}
        .st1{fill:#0E6FFF;}
    </style>
    <!-- Add your path elements here -->
    <path class="st0" d="M190.89,97.17c-3.62-2.03-6.53-4.88-8.65-8.55c-2.12-3.66-3.23-7.73-3.23-12.41c0-4.58,1.11-8.65,3.23-12.31  c2.12-3.66,5.03-6.51,8.65-8.55c3.64-2.03,7.65-3.05,11.98-3.05c4.44,0,8.36,1.02,11.98,3.05c3.62,2.03,6.44,4.88,8.56,8.55  c2.12,3.66,3.13,7.73,3.13,12.31s-1.01,8.75-3.13,12.41c-2.12,3.66-4.94,6.51-8.65,8.55c-3.64,2.03-7.65,3.05-11.98,3.05  C198.55,100.23,194.53,99.21,190.89,97.17z M210.22,89.95c2.12-1.32,3.83-3.05,5.04-5.49c1.21-2.34,1.81-5.09,1.81-8.24  c0-3.15-0.6-5.9-1.81-8.24c-1.21-2.34-2.82-4.17-5.04-5.39c-2.1-1.22-4.63-1.83-7.35-1.83c-2.82,0-5.23,0.61-7.44,1.83  c-2.12,1.22-3.83,3.05-5.04,5.39c-1.21,2.34-1.81,5.09-1.81,8.24c0,3.15,0.6,5.9,1.81,8.24c1.21,2.34,2.92,4.17,5.04,5.49  c2.1,1.32,4.62,1.93,7.44,1.93S208.12,91.17,210.22,89.95z"/>
<path class="st0" d="M247.78,63.7c2.1-1.12,4.53-1.73,7.25-1.73c3.11,0,6.03,0.82,8.56,2.34c2.51,1.53,4.53,3.76,6.03,6.72  c1.51,2.85,2.22,6.21,2.22,10.07c0,3.87-0.71,7.22-2.22,10.07c-1.51,2.95-3.52,5.19-6.03,6.82c-2.53,1.63-5.45,2.44-8.56,2.44  c-2.72,0-5.14-0.61-7.14-1.73c-2.02-1.12-3.73-2.54-5.04-4.27v23.1h-9.26V62.58h9.26v5.39C244.05,66.24,245.66,64.82,247.78,63.7z   M260.95,75.2c-0.91-1.63-2.1-2.85-3.62-3.76c-1.51-0.81-3.11-1.32-4.82-1.32c-1.72,0-3.23,0.41-4.73,1.32  c-1.52,0.92-2.72,2.14-3.62,3.76c-0.91,1.63-1.42,3.56-1.42,5.8c0,2.24,0.51,4.17,1.42,5.8c0.91,1.63,2.1,2.95,3.62,3.76  c1.51,0.92,3.01,1.32,4.73,1.32c1.71,0,3.32-0.41,4.82-1.32c1.52-0.92,2.72-2.14,3.62-3.87c0.91-1.63,1.42-3.66,1.42-5.9  C262.27,78.76,261.86,76.83,260.95,75.2z"/>
<path class="st0" d="M312.59,83.95h-26.88c0.2,2.65,1.11,4.78,2.82,6.31c1.62,1.53,3.62,2.24,6.05,2.24c3.42,0,5.93-1.53,7.35-4.48  h10.06c-1.11,3.56-3.13,6.51-6.14,8.85c-3.02,2.34-6.75,3.46-11.07,3.46c-3.53,0-6.75-0.81-9.57-2.34  c-2.82-1.63-5.04-3.87-6.54-6.72c-1.61-2.95-2.31-6.31-2.31-10.07c0-3.87,0.8-7.22,2.31-10.17c1.51-2.95,3.72-5.19,6.54-6.72  c2.82-1.53,6.03-2.34,9.67-2.34c3.52,0,6.63,0.71,9.35,2.24c2.82,1.53,4.94,3.66,6.44,6.51c1.52,2.85,2.32,6,2.32,9.67  C312.8,81.71,312.7,82.93,312.59,83.95z M303.14,77.64c0-2.44-0.91-4.38-2.63-5.8c-1.71-1.42-3.72-2.14-6.14-2.14  c-2.31,0-4.22,0.71-5.84,2.14c-1.61,1.42-2.51,3.36-2.91,5.9h17.52V77.64z"/>
<path class="st0" d="M350.65,66.24c2.72,2.85,4.02,6.72,4.02,11.7v21.88h-9.25V79.16c0-2.95-0.71-5.19-2.22-6.82  c-1.51-1.63-3.42-2.34-5.94-2.34c-2.62,0-4.63,0.81-6.03,2.34c-1.51,1.63-2.22,3.87-2.22,6.82v20.55h-9.26V62.58H329v4.68  c1.21-1.63,2.82-2.85,4.73-3.76c1.91-0.92,4.03-1.42,6.34-1.42C344.41,61.97,347.93,63.39,350.65,66.24z"/>
<path class="st1" d="M364.13,56.58c-1.11-1.02-1.61-2.34-1.61-3.97c0-1.53,0.5-2.85,1.61-3.97c1.11-1.12,2.42-1.63,4.13-1.63  c1.61,0,3.01,0.51,4.12,1.63c1.11,1.02,1.61,2.34,1.61,3.97c0,1.53-0.5,2.85-1.61,3.97c-1.11,1.02-2.41,1.63-4.12,1.63  C366.64,58.1,365.24,57.59,364.13,56.58z M372.89,62.58v37.24h-9.26V62.58H372.89z"/>
<path class="st1" d="M413.05,66.24c2.72,2.85,4.03,6.72,4.03,11.7v21.88h-9.26V79.16c0-2.95-0.71-5.19-2.22-6.82  c-1.51-1.63-3.42-2.34-5.93-2.34c-2.63,0-4.63,0.81-6.05,2.34c-1.51,1.63-2.21,3.87-2.21,6.82v20.55h-9.26V62.58h9.26v4.68  c1.2-1.63,2.81-2.85,4.72-3.76c1.91-0.92,4.03-1.42,6.35-1.42C406.81,61.97,410.34,63.39,413.05,66.24z"/>
<path class="st0" d="M454.42,90.87H435.9l-3.01,8.95h-9.77l16.71-47.01h10.87l16.71,47.01h-9.86L454.42,90.87z M451.91,83.34  l-6.75-19.64l-6.74,19.64H451.91z"/>
<path class="st0" d="M487.85,63.7c2.12-1.12,4.53-1.73,7.25-1.73c3.13,0,6.03,0.82,8.56,2.34c2.51,1.53,4.53,3.76,6.03,6.72  c1.51,2.85,2.22,6.21,2.22,10.07c0,3.87-0.71,7.22-2.22,10.07c-1.51,2.95-3.52,5.19-6.03,6.82c-2.53,1.63-5.43,2.44-8.56,2.44  c-2.72,0-5.13-0.61-7.14-1.73c-2.02-1.12-3.73-2.54-5.04-4.27v23.1h-9.26V62.58h9.26v5.39C484.12,66.24,485.73,64.82,487.85,63.7z   M501.04,75.2c-0.92-1.63-2.12-2.85-3.64-3.76c-1.51-0.81-3.11-1.32-4.82-1.32c-1.71,0-3.23,0.41-4.73,1.32  c-1.52,0.92-2.72,2.14-3.62,3.76c-0.91,1.63-1.42,3.56-1.42,5.8c0,2.24,0.51,4.17,1.42,5.8c0.91,1.63,2.11,2.95,3.62,3.76  c1.51,0.92,3.02,1.32,4.73,1.32c1.71,0,3.32-0.41,4.82-1.32c1.52-0.92,2.72-2.14,3.64-3.87c0.91-1.63,1.4-3.66,1.4-5.9  C502.34,78.76,501.94,76.83,501.04,75.2z"/>
<path class="st0" d="M532.94,63.7c2.12-1.12,4.53-1.73,7.25-1.73c3.13,0,6.03,0.82,8.56,2.34c2.51,1.53,4.53,3.76,6.03,6.72  c1.51,2.85,2.22,6.21,2.22,10.07c0,3.87-0.71,7.22-2.22,10.07c-1.51,2.95-3.52,5.19-6.03,6.82c-2.53,1.63-5.43,2.44-8.56,2.44  c-2.72,0-5.13-0.61-7.14-1.73c-2.02-1.12-3.72-2.54-5.04-4.27v23.1h-9.26V62.58H528v5.39C529.11,66.24,530.82,64.82,532.94,63.7z   M546.03,75.2c-0.91-1.63-2.12-2.85-3.62-3.76c-1.52-0.81-3.13-1.32-4.83-1.32s-3.23,0.41-4.73,1.32c-1.51,0.92-2.72,2.14-3.62,3.76  c-0.91,1.63-1.42,3.56-1.42,5.8c0,2.24,0.51,4.17,1.42,5.8c0.91,1.63,2.12,2.95,3.62,3.76s3.02,1.32,4.73,1.32s3.32-0.41,4.83-1.32  c1.51-0.92,2.72-2.14,3.62-3.87c0.91-1.63,1.4-3.66,1.4-5.9C547.43,78.76,546.94,76.83,546.03,75.2z"/>
<path class="st1" d="M151.84,47.83c0-1.53-0.1-3.05-0.2-4.48c-0.4-3.87-1.11-7.53-2.31-11.09c-3.53-1.02-7.26-1.63-11.07-1.83  c-0.71,0-1.42-0.1-2.12-0.1c-12.88,0-24.56,5.19-33.12,13.63c-3.42-0.81-6.85-1.22-10.47-1.22c-9.76,0-18.82,2.95-26.37,8.04  c-3.13,2.14-6.03,4.58-8.56,7.33c0.8,3.77,2.02,7.33,3.62,10.68C67.09,81,77.86,90.26,90.94,94.12  c4.13,12.21,12.88,22.18,24.26,27.68c3.21,1.63,6.74,2.85,10.36,3.66c2.63-2.54,5.04-5.49,7.05-8.65  c4.73-7.53,7.55-16.38,7.55-25.95c0-3.56-0.41-7.02-1.11-10.28C147.01,72.04,151.84,60.44,151.84,47.83z M88.43,78.55  c0,1.53,0.1,3.05,0.2,4.48c-9.36-4.27-16.71-12.11-20.33-21.98c6.54-5.39,14.99-8.75,24.15-8.75c1.21,0,2.32,0.1,3.53,0.2  C91.25,60.04,88.43,68.99,88.43,78.55z M98.7,85.98c-0.51-2.44-0.71-4.88-0.71-7.43c0-8.95,3.02-17.09,8.06-23.61  c10.36,3.97,18.52,12.31,22.24,22.79c-6.53,5.39-14.99,8.75-24.15,8.75C102.32,86.29,100.51,86.18,98.7,85.98z M122.56,114.57  c-8.97-3.46-16.21-10.07-20.54-18.62c0.7,0,1.4,0.1,2.12,0.1c9.76,0,18.82-2.95,26.37-8.04c0.1,1.02,0.1,1.93,0.1,2.95  C130.6,99.82,127.68,107.96,122.56,114.57z M113.4,47.62c6.34-4.78,14.19-7.63,22.75-7.63c1.91,0,3.73,0.1,5.43,0.41  c0.5,2.44,0.7,4.88,0.7,7.43c0,8.24-2.51,15.87-6.94,22.08C130.71,60.24,122.95,52.3,113.4,47.62z"/>
<path class="st1" d="M92.55,105.42c0,0-0.4-4.07-4.73-8.24c-4.32-4.17-8.34-4.48-8.34-4.48c-28.09-5.29-23.36,37.65-23.36,37.65  S98.7,133.6,92.55,105.42z M65.18,120.78c0,0-0.7-20.15,12.39-18.72c0,0,1.91,0,3.81,1.83c1.91,1.83,1.91,3.76,1.91,3.76  C85.1,120.78,65.18,120.78,65.18,120.78z"/>
</svg>

